<svg xmlns="http://www.w3.org/2000/svg" width="164" height="82" viewBox="0 0 164 82">
    <g fill="none" fill-rule="nonzero">
        <path fill="#F5C518" d="M163.91 12.075v-.631c-.18.09-.18-.09-.18-.18-.452-2.343-1.354-4.416-2.887-6.218-1.714-2.072-3.88-3.514-6.405-4.415-1.263-.45-2.706-.631-4.06-.631H13.261C10.825 0 8.57.72 6.495 1.982 4.15 3.424 2.345 5.407 1.173 8.02a12.367 12.367 0 0 0-.993 3.244c0 .18 0 .18-.18.27v.63h.09l-.09.09v57.491l.09.09c0 .09 0 .09-.09 0v.721c.18-.09.18 0 .18.18.361 2.073 1.173 3.875 2.346 5.587 1.082 1.532 2.435 2.793 4.06 3.695 1.713 1.08 3.517 1.622 5.502 1.892.541.09 1.083.09 1.624.09h136.666c3.068 0 5.864-.991 8.3-2.884 1.804-1.351 3.067-3.063 4.06-5.046a11.109 11.109 0 0 0 1.082-3.334c0-.18 0-.18.18-.27v-.72h-.09l.09-.091v-57.49c-.18 0-.18 0-.09-.09-.09 0-.09 0 0 0z"/>
        <path fill="#010101" d="M.897 12.252s.09 0 0 0c.09.089 0 .089 0 .089v-.09zM163.924 12.34c-.09 0-.09 0 0 0-.09-.088 0-.088 0-.088v.089zM.897 69.464s.09 0 0 0c.09.089 0 .089 0 .089v-.09zM163.924 69.553c-.09 0-.09 0 0 0-.09-.09 0-.09 0-.09v.09z"/>
        <path fill="#FBBF14" d="M94.337 39.07V24.588c0-.447.09-.536.538-.536.986 0 1.973 0 2.87.446.717.358.986.894.986 1.61v25.745c0 1.43-.807 1.967-1.883 2.235-.718.179-1.345.09-2.063.09-.358 0-.448-.09-.448-.448v-4.827-9.833zM127.965 42.377v-11.62c0-1.074.448-1.163.986-1.252.807-.09 1.256.268 1.525 1.072.09.268.09.626.09.894v23.153c0 .805-.18 1.073-.808 1.252-.628.179-1.076 0-1.435-.537-.269-.357-.358-.715-.358-1.162v-11.8z"/>
        <path fill="#191919" d="M60.26 38.265c.36-1.609.45-3.129.718-4.738.18-1.251.27-2.413.449-3.665.179-1.162.358-2.324.448-3.486.09-.894.18-1.788.359-2.682.09-.983.179-1.877.358-2.86.18-.895.27-1.878.36-2.772.089-.804 0-.804.806-.804h13.72c.449 0 .538.089.538.536v43.982c0 .357-.09.536-.448.536h-8.609c-.448 0-.538-.09-.538-.536V38.355v-.537h-.09c-.358 1.877-.627 3.665-.986 5.543-.269 1.609-.628 3.307-.897 4.916-.269 1.61-.538 3.308-.807 4.917-.269 1.43-.538 2.86-.717 4.29-.27 1.52-.538 2.95-.807 4.47-.09.358-.18.448-.538.448H57.48c-.18 0-.359 0-.359-.269-.358-2.324-.807-4.648-1.255-6.972-.449-2.414-.897-4.738-1.345-7.152-.449-2.503-.807-5.006-1.345-7.509-.18-.894-.27-1.788-.538-2.771V61.865c0 .447-.09.626-.538.626h-8.788c-.449 0-.539-.09-.539-.536V17.973c0-.358.09-.537.449-.537h12.644c.269 0 .448 0 .538.358.269 1.877.628 3.754.986 5.632.359 2.056.718 4.022 1.076 6.079.27 1.698.538 3.307.807 5.006.538 1.162.808 2.503.987 3.754zM83.755 39.427V17.794c0-.536.18-.626.628-.626h14.438c2.062 0 4.125.09 6.097.894 1.615.715 3.229 1.52 4.305 3.04.717.983 1.076 2.145 1.345 3.396.269 1.52.18 2.95.18 4.47v24.137c0 2.145-.718 4.112-2.422 5.542-1.166.983-2.6 1.61-4.035 1.967a23.304 23.304 0 0 1-6.098.804c-4.663.179-9.236 0-13.9.09-.448 0-.358-.269-.358-.537-.18-7.062-.18-14.303-.18-21.544zm10.582-.357v14.66c0 .358.09.447.448.447.718 0 1.345 0 2.063-.09 1.076-.267 1.883-.804 1.883-2.234V26.108c0-.805-.359-1.252-.986-1.61-.897-.446-1.884-.357-2.87-.446-.448 0-.538.089-.538.536V39.07zM127.247 27.36c1.704-1.163 3.498-2.236 5.47-2.772 2.511-.626 4.663-.09 6.636 1.52 1.435 1.162 2.152 2.681 2.152 4.559v26.55c0 2.503-1.972 4.112-3.856 4.47-1.345.268-2.69.268-4.035.178-1.345-.09-2.6-.536-3.856-.983a32.178 32.178 0 0 0-3.138-.984c-.449-.089-.628.09-.808.358a5.67 5.67 0 0 0-.538 1.61c-.09.267-.179.357-.448.357h-8.878c-.269 0-.358-.09-.358-.268v-.269-43.803c0-.536.09-.625.627-.625h10.223c.628 0 .628 0 .628.715.18 3.04.18 6.168.18 9.386zm.718 15.017v11.71c0 .448.09.805.358 1.163.36.536.897.715 1.435.536.628-.178.807-.447.807-1.251V31.382c0-.358 0-.626-.09-.894-.268-.715-.717-1.162-1.524-1.073-.538.09-.986.268-.986 1.252v11.71zM26.633 39.695V17.794c0-.447.09-.536.538-.536h9.595c.449 0 .449.089.449.536v43.982c0 .447-.09.536-.538.536h-9.595c-.449 0-.539-.09-.539-.536.09-7.42.09-14.75.09-22.08z"/>
    </g>
</svg>
